PathFileType	4	(X/Y/Z)	D:\mayra\Descargas\0003~aa~Standing.trc
DataRate	CameraRate	NumFrames	NumMarkers	Units	OrigDataRate	OrigDataStartFrame	OrigNumFrames
250.00	250.00	9	22	mm	250.00	1877	2178
Frame#	Time	r.should			l.should			c7			r.asis			l.asis			sacrum			r.bar1			l.bar1			r.knee1			l.knee1			r.bar2			r.mall			l.bar2			l.mall			r.met			r.heel			l.heel			l.met			r.mallm			l.mallm			r.kneem			l.kneem			
		X1	Y1	Z1	X2	Y2	Z2	X3	Y3	Z3	X4	Y4	Z4	X5	Y5	Z5	X6	Y6	Z6	X7	Y7	Z7	X8	Y8	Z8	X9	Y9	Z9	X10	Y10	Z10	X11	Y11	Z11	X12	Y12	Z12	X13	Y13	Z13	X14	Y14	Z14	X15	Y15	Z15	X16	Y16	Z16	X17	Y17	Z17	X18	Y18	Z18	X19	Y19	Z19	X20	Y20	Z20	X21	Y21	Z21	X22	Y22	Z22	

1876	7.504000	998.994589	1331.346512	358.542025	1027.321100	1319.213867	68.509698	917.648911	1355.979443	223.259807	1133.025169	870.979011	359.841913	1079.654217	873.017609	57.747334	880.191088	938.522816	234.745756	1031.014800	835.385621	433.835328	1024.840832	794.142365	24.641879	1006.084561	467.918545	388.067961	999.800503	447.146744	95.390052	1004.449368	405.042648	383.754939	970.706046	76.102346	364.159852	978.867531	403.176725	92.617534	974.641502	70.207909	110.695101	1115.900278	42.766787	344.955176	908.890128	33.410989	319.289327	913.465202	31.236980	158.067644	1117.109656	41.004330	129.488587	980.485082	75.283259	280.517071	983.803689	75.174898	188.297212	1031.438470	450.245857	249.237657	1007.557034	448.067576	229.333326	
1877	7.508000	998.996437	1331.351757	358.557612	1027.325630	1319.223642	68.516985	917.645216	1355.977058	223.265499	1133.014798	870.989084	359.829694	1079.629660	873.010993	57.764318	880.181670	938.541174	234.729841	1031.017900	835.391581	433.833599	1024.829149	794.133604	24.632778	1006.058455	467.919797	388.061345	999.778807	447.150081	95.375709	1004.416704	405.053496	383.746564	970.702112	76.089755	364.165068	978.868127	403.171927	92.614077	974.644601	70.203438	110.695057	1115.909934	42.771213	344.961703	908.893526	33.411745	319.287419	913.468599	31.230405	158.071995	1117.098570	41.002393	129.484057	980.484247	75.274475	280.524820	983.795762	75.177610	188.288599	1031.380534	450.229287	249.266505	1007.526040	448.060721	229.326516	
1878	7.512000	998.989224	1331.359863	358.575225	1027.335405	1319.237232	68.524696	917.656541	1355.958223	223.281175	1133.015633	870.988667	359.817356	1079.616547	873.007119	57.766389	880.154252	938.559949	234.702274	1030.997038	835.391343	433.835477	1024.821043	794.131279	24.629304	1006.038427	467.917800	388.051897	999.760449	447.150588	95.360085	1004.400492	405.045658	383.743584	970.708907	76.096587	364.164710	978.847146	403.170496	92.611454	974.639177	70.205972	110.695824	1115.904808	42.773265	344.965219	908.891618	33.412606	319.283485	913.466454	31.223394	158.076435	1117.099524	41.012466	129.487053	980.480969	75.269155	280.532092	983.789682	75.187191	188.283294	1031.385779	450.239837	249.243975	1007.503748	448.062390	229.319766	
1879	7.516000	998.989105	1331.364989	358.587712	1027.339339	1319.245100	68.540826	917.661667	1355.952621	223.299831	1133.019090	870.988488	359.803796	1079.592586	873.013437	57.759855	880.146623	938.564003	234.691709	1030.990720	835.386395	433.834046	1024.803162	794.124246	24.619760	1006.020069	467.916727	388.054490	999.736071	447.151244	95.354915	1004.379630	405.046672	383.737415	970.709145	76.107278	364.172548	978.806257	403.167129	92.605583	974.633753	70.205092	110.694855	1115.907788	42.773899	344.965309	908.880711	33.400781	319.283545	913.470864	31.216918	158.077553	1117.103219	41.018650	129.489735	980.477095	75.268880	280.541182	983.786881	75.184286	188.286260	1031.385660	450.241446	249.217749	1007.489204	448.056191	229.316205	
1880	7.520000	998.990297	1331.369638	358.594656	1027.346134	1319.261193	68.547219	917.654634	1355.956197	223.307595	1133.021116	870.997012	359.780937	1079.576373	873.025000	57.763960	880.153835	938.565373	234.683514	1030.990601	835.384011	433.828771	1024.778724	794.120669	24.603728	1006.003141	467.911839	388.052702	999.725401	447.151333	95.352300	1004.354835	405.038804	383.731425	970.709503	76.107495	364.176005	978.795826	403.159142	92.592746	974.626839	70.197180	110.694498	1115.902424	42.774659	344.961554	908.868074	33.392143	319.286317	913.472235	31.218912	158.070743	1117.102623	41.018590	129.486978	980.471015	75.262934	280.550897	983.785570	75.180173	188.283145	1031.294465	450.207859	249.251753	1007.454872	448.052138	229.311317	
1881	7.524000	998.984158	1331.375360	358.612239	1027.344227	1319.281101	68.560012	917.660773	1355.959654	223.305821	1133.031249	871.016622	359.772831	1079.561353	873.005092	57.761870	880.167782	938.573897	234.670699	1030.972242	835.383832	433.806241	1024.765491	794.125140	24.599239	1005.988121	467.914879	388.047010	999.701262	447.145998	95.338419	1004.347324	405.034453	383.737624	970.719099	76.103374	364.181876	978.777289	403.152347	92.578970	974.622846	70.189118	110.694356	1115.904212	42.772375	344.965756	908.862472	33.386528	319.296718	913.475692	31.226225	158.069104	1117.101669	41.022032	129.487157	980.479002	75.265780	280.555308	983.783662	75.189754	188.273400	1031.150341	450.147599	249.301732	1007.431626	448.058635	229.309484	
1882	7.528000	998.966396	1331.384659	358.627915	1027.348995	1319.298863	68.573326	917.643845	1355.964422	223.303229	1133.013606	871.020734	359.760046	1079.523802	872.995377	57.773113	880.160093	938.581347	234.659865	1030.922055	835.371852	433.767349	1024.762154	794.124603	24.588708	1005.969644	467.921495	388.044894	999.679625	447.137982	95.320806	1004.343152	405.044198	383.741260	970.721126	76.088004	364.185989	978.752971	403.151959	92.570804	974.617124	70.187122	110.695913	1115.897775	42.772755	344.962507	908.870757	33.386104	319.300920	913.466036	31.226873	158.055097	1117.111683	41.024122	129.484504	980.492115	75.264625	280.559689	983.776689	75.198770	188.260883	1031.132102	450.145394	249.298513	1007.410407	448.063463	229.299009	
1883	7.532000	998.953283	1331.396222	358.636230	1027.358294	1319.316030	68.582989	917.624652	1355.965495	223.304898	1133.000374	871.022582	359.741330	1079.529524	873.014271	57.768356	880.138278	938.598692	234.641761	1030.893803	835.360467	433.736920	1024.745584	794.127464	24.580965	1005.941749	467.925698	388.033360	999.667108	447.140455	95.317230	1004.311800	405.048460	383.737564	970.704079	76.093331	364.178658	978.735507	403.153926	92.564076	974.613130	70.182212	110.697620	1115.889907	42.767588	344.957054	908.870578	33.391654	319.298625	913.454771	31.232923	158.046767	1117.110491	41.022815	129.480734	980.499983	75.256675	280.558169	983.764708	75.200416	188.253671	1031.146049	450.160980	249.279439	1007.377386	448.063165	229.289383	
1884	7.536000	998.951674	1331.408024	358.644009	1027.372122	1319.330692	68.592057	917.613864	1355.959177	223.302722	1133.002639	871.018827	359.718114	1079.536080	873.016715	57.759285	880.126178	938.612998	234.620452	1030.895233	835.363150	433.740199	1024.733067	794.125676	24.574047	1005.917788	467.930943	388.018847	999.661326	447.145253	95.308773	1004.297376	405.052543	383.733779	970.690250	76.096557	364.182532	978.717327	403.144717	92.555776	974.614441	70.178598	110.690065	1115.887523	42.758249	344.964802	908.866763	33.385962	319.297522	913.439214	31.237554	158.044577	1117.107511	41.024692	129.474491	980.490983	75.257793	280.552983	983.761907	75.197503	188.252062	1031.132460	450.157702	249.277651	1007.355213	448.054552	229.283720	
